<?xml version="1.0" encoding="utf-8"?>
<!-- Generator: Adobe Illustrator 27.8.0, SVG Export Plug-In . SVG Version: 6.00 Build 0)  -->
<svg version="1.1" id="Layer_1" xmlns="http://www.w3.org/2000/svg" xmlns:xlink="http://www.w3.org/1999/xlink" x="0px" y="0px"
	 viewBox="0 0 512 512" style="enable-background:new 0 0 512 512;" xml:space="preserve">
<style type="text/css">
	.st0{fill:#1E4063;}
	.st1{fill:#FFDF6A;}
</style>
<g>
	<circle class="st0" cx="256" cy="256" r="256"/>
	<circle class="st1" cx="168.3" cy="147.8" r="63.8"/>
	<path class="st1" d="M136.8,269.1l-10.1-3.7c-8.2-3-14.6-9.4-17.6-17.6l-3.7-10.1c-0.1-0.4-0.5-0.6-0.9-0.6s-0.8,0.3-0.9,0.6
		l-3.7,10.1c-3,8.2-9.4,14.6-17.6,17.6l-10.1,3.7c-0.4,0.1-0.6,0.5-0.6,0.9s0.3,0.8,0.6,0.9l10.1,3.7c8.2,3,14.6,9.4,17.6,17.6
		l3.7,10.1c0.1,0.4,0.5,0.6,0.9,0.6s0.8-0.3,0.9-0.6l3.7-10.1c3-8.2,9.4-14.6,17.6-17.6l10.1-3.7c0.4-0.1,0.6-0.5,0.6-0.9
		C137.4,269.6,137.2,269.2,136.8,269.1z"/>
	<path class="st1" d="M264.4,312.4l-10.1-3.7c-8.2-3-14.6-9.4-17.6-17.6L233,281c-0.1-0.4-0.5-0.6-0.9-0.6c-0.4,0-0.8,0.3-0.9,0.6
		l-3.7,10.1c-3,8.2-9.4,14.6-17.6,17.6l-10.1,3.7c-0.4,0.1-0.6,0.5-0.6,0.9s0.3,0.8,0.6,0.9l10.1,3.7c8.2,3,14.6,9.4,17.6,17.6
		l3.7,10.1c0.1,0.4,0.5,0.6,0.9,0.6c0.4,0,0.8-0.3,0.9-0.6l3.7-10.1c3-8.2,9.4-14.6,17.6-17.6l10.1-3.7c0.4-0.1,0.6-0.5,0.6-0.9
		C265.1,312.9,264.8,312.6,264.4,312.4z"/>
	<path class="st1" d="M298.1,3.5c44.1,46,71.3,108.4,71.3,177.2c0,141.4-114.6,256-256,256c-14.3,0-28.4-1.2-42.1-3.5
		C117.8,481.8,183.4,512,256,512c141.4,0,256-114.6,256-256C512,128.9,419.4,23.5,298.1,3.5z"/>
</g>
</svg>
