<?xml version="1.0" encoding="UTF-8"?>
<svg id="Layer_1" data-name="Layer 1" xmlns="http://www.w3.org/2000/svg" version="1.1" viewBox="0 0 24 24">
  <defs>
    <style>
      .cls-1 {
        fill: #d9d6d6;
        stroke-width: 0px;
      }
    </style>
  </defs>
  <path class="cls-1" d="M12,22c-1.383,0-2.563-.488-3.538-1.463s-1.463-2.154-1.463-3.538c0-.8.175-1.546.525-2.238s.842-1.279,1.475-1.763V5c0-.833.292-1.542.875-2.125s1.292-.875,2.125-.875,1.542.292,2.125.875.875,1.292.875,2.125v8c.633.483,1.125,1.071,1.475,1.763s.525,1.438.525,2.238c0,1.383-.488,2.563-1.463,3.538s-2.154,1.463-3.538,1.463ZM11,11h2v-1h-1v-1h1v-2h-1v-1h1v-1c0-.283-.096-.521-.288-.713-.192-.192-.429-.288-.713-.288s-.521.096-.713.288-.288.429-.288.713v6Z"/>
</svg>