<?xml version="1.0" encoding="UTF-8"?>
<svg id="Layer_1" data-name="Layer 1" xmlns="http://www.w3.org/2000/svg" version="1.1" viewBox="0 0 24 24">
  <defs>
    <style>
      .cls-1 {
        fill: #d9d6d6;
        stroke-width: 0px;
      }
    </style>
  </defs>
  <path class="cls-1" d="M11,5V1h2v4h-2ZM17.6,7.8l-1.4-1.4,2.8-2.9,1.4,1.4s-2.8,2.8-2.8,2.8ZM19,13v-2h4v2h-4ZM11,23v-4h2v4h-2ZM6.3,7.7l-2.8-2.8,1.4-1.4,2.8,2.8s-1.4,1.3-1.4,1.4ZM19,20.5l-2.8-2.9,1.4-1.4,2.9,2.8s-1.4,1.5-1.4,1.5ZM1,13v-2h4v2H1ZM4.9,20.5l-1.4-1.4,2.8-2.8.7.7.7.7s-2.8,2.9-2.8,2.8ZM12,18c-1.7,0-3.1-.6-4.2-1.8s-1.8-2.6-1.8-4.2.6-3.1,1.8-4.2,2.6-1.8,4.2-1.8,3.1.6,4.2,1.8,1.8,2.6,1.8,4.2-.6,3.1-1.8,4.2-2.6,1.8-4.2,1.8ZM12,16c1.1,0,2-.4,2.8-1.2s1.2-1.7,1.2-2.8-.4-2-1.2-2.8-1.7-1.2-2.8-1.2-2,.4-2.8,1.2-1.2,1.7-1.2,2.8.4,2,1.2,2.8,1.7,1.2,2.8,1.2Z"/>
</svg>